<?xml version="1.0" encoding="UTF-8"?>
<svg id="Layer_2" data-name="Layer 2" xmlns="http://www.w3.org/2000/svg" viewBox="0 0 445.78 90.91">
  <defs>
    <style>
      .cls-1 {
        fill: #231f20;
      }
    </style>
  </defs>
  <g id="Layer_1-2" data-name="Layer 1">
    <g>
      <g>
        <path class="cls-1" d="m44.2,48.8c0,10.2-7.9,20.4-22.5,20.4-10.4,0-19-4.9-21.7-6.5l4.2-9.2c.1.1,11,6.4,16.7,6.4,7,0,10.5-3.7,10.5-9.9s-3.8-8.2-10-10.7C9.4,34.3,2.2,29.6,2.2,18,2.2,8.2,11.1,0,23.5,0c9.3,0,17.7,4,19.6,5.3l-4.9,8.6c0-.1-8-4.6-14.1-4.6-4.8,0-8.9,2.2-8.9,7,0,6,3.8,9.4,12,12.6,10.6,4.2,17,8.8,17,19.9Z"/>
        <path class="cls-1" d="m80.6.9l26.1,67.7h-12.7l-6.2-17.7h-24.4l-6.4,17.7h-11.8L71.2.9h9.4Zm-4.9,13.3c-1.8,5.9-5,16.3-9.1,27.9h18.1c-4.2-11.9-7.4-22.4-9-27.9Z"/>
        <path class="cls-1" d="m151.05,70.02l.15-7.91v-1.4c-3,5.6-9.2,8.7-16.9,8.7-16.7,0-23.8-13.5-23.8-33.7S119.9,0,140.1,0c8.9,0,15,3.5,18.4,7.1l-5.8,7.6c-3.4-3.4-8.8-5.5-14-5.5-11.4,0-15.3,11.4-15.3,25.5,0,15.1,3.7,25.4,13.2,25.4,6.2,0,13.4-5.7,13.4-15.2v-9.1h11.7v33.1c0,1.15-.05,1.25-.14,2.29"/>
        <path class="cls-1" d="m213.9.9v9h-28.3v18.9h23.3l-1.5,9.1h-21.8v21.7h29.8v9h-41.7V.9h40.2Z"/>
        <path class="cls-1" d="m244.7,90.91l-5.78-9.76c10.5-5.2,10.77-9.2,11.58-13.84V.9h11.9v65.2c0,16.1-9.6,20.7-17.7,24.8Z"/>
        <path class="cls-1" d="m316.6.9v9h-28.3v18.9h23.3l-1.5,9.1h-21.8v21.7h29.8v9h-41.7V.9h40.2Z"/>
        <path class="cls-1" d="m352.7,69.2c-20,0-28.3-12.4-28.3-33.6S333.7,0,354,0s28.2,13.1,28.2,34.2-9.3,35-29.5,35Zm1.4-9.2c11.6,0,15.3-10.6,15.3-24.8s-3-26-16.8-26c-11.6,0-15.3,11-15.3,25.3,0,13.5,3,25.5,16.8,25.5Z"/>
        <path class="cls-1" d="m445.6.9v67.8h-9.9l-22.8-35.6c-2.5-3.8-5.8-9.2-8.4-13.3.4,4.3.8,9.2.8,13.4l.3,35.4h-11.9V.7h9.3l23.5,35.2c2.6,3.8,5.5,8.4,8.1,12.4-.3-4.3-.6-8.9-.6-12l-.3-35.4h11.9Z"/>
      </g>
      <g>
        <path d="m445.23,75.65c.66.07.45-.36.55-.43-1.11.03-.53.54-.55.43Z"/>
        <polygon points="434.28 76.06 434.48 75.89 432.86 76.26 434.28 76.06"/>
        <path d="m424.08,75.82c.96.71,3.7-.06,5.51.22l.3.17.83-.55c-2.21.03-5.09.37-6.64.15Z"/>
        <path d="m418.64,74.27c.34.28-1.18.25,1.27.08-.12-.03-.16-.05-.23-.07-.22,0-.52,0-1.04-.01Z"/>
        <path d="m419.68,74.28c1.08-.03-.71-.23,0,0h0Z"/>
        <path d="m414.71,74.48l1.41-.27c-.3-.16-1.56-.18-1.09-.3-1.45.16-1.15.32-.32.57Z"/>
        <path d="m413.37,75.02l.73-.12c-.13-.07-.32-.09-.73.12Z"/>
        <path d="m415.66,74.66l-1.55.25c.21.11.23.34.71-.09-.12.21.18,0,.84-.15Z"/>
        <path d="m416.54,74.76c.8.15,1.82.24.4.5,2.71-.12,2.31-.61-.4-.5Z"/>
        <path d="m423.56,76.56l1.06.21.92-.23c-.46.1-2.04-.21-1.98.01Z"/>
        <path d="m405.89,74.3c-.08.15.49.39.6.58l1.04-.2c-.54-.09-1.56-.16-1.63-.38Z"/>
        <path d="m406.48,74.88l-1.55.3c1.39,0,1.65-.14,1.55-.3Z"/>
        <polygon points="413.13 75.82 415.69 75.23 412.64 75.84 413.13 75.82"/>
        <polygon points="399.93 74.44 400.81 74.06 399.25 74.64 399.93 74.44"/>
        <path d="m396,74.61c.64-.31-.91-.47-.22-.67-1.07.08-1.97.35-2.79.59.87-.14,1.8-.13,3.01.07Z"/>
        <path d="m391.62,74.89c.43-.08.88-.21,1.37-.36-.46.08-.92.18-1.37.36Z"/>
        <path d="m402.27,75.18c-.12-.09-.36-.32-1.24-.4l.62.41c.19,0,.4,0,.61-.01Z"/>
        <path d="m401.68,75.2h-.02c-.66,0-1.13,0-1.32,0,.17,0,.57,0,1.35,0Z"/>
        <path d="m402.43,75.18c-.06,0-.1,0-.15,0,.06.04.1.05.15,0Z"/>
        <path d="m409.03,75.52c-.91.26-2.82.56-.96.88.65-.31-.41-.49.96-.88Z"/>
        <path d="m403.2,75.69l1.66.05c-.04-.11-.34-.27.11-.4l-1.77.35Z"/>
        <polygon points="402.4 75.85 403.2 75.69 402.59 75.67 402.4 75.85"/>
        <path d="m394.45,75.23c-.71.2-1.49.23-2.37.28.95.06,1.92.09,2.85.06.13-.14.53-.39-.48-.35Z"/>
        <path d="m397.96,75.26s-.11.02-.16.03c.1.03.18.04.16-.03Z"/>
        <path d="m383.42,75.65s.09.05.14.08l.03-.07h-.17Z"/>
        <path d="m395.09,75.65c.71.06,1.13-.05,1.53-.19-.53.06-1.09.1-1.7.12-.06.06-.07.1.16.08Z"/>
        <path d="m389.21,75.14c.37.08.79.15,1.23.21-.36-.13-1.1-.33-1.23-.21Z"/>
        <path d="m397.56,75.17s.07-.01.11-.02c-.24-.09-.2-.04-.11.02Z"/>
        <path d="m397.56,75.17c-.36.07-.65.18-.93.29.43-.04.83-.1,1.18-.17-.09-.03-.18-.07-.24-.11Z"/>
        <path d="m380.81,78.41c.12-.4,1.99-.78,3.61-.37,1.59-.31.53-1.6-.86-2.32-.05.17-.05.33-1.67.58.57.21,3.62.48,2.25.85-2.16.22-1.77-.13-2.82-.33.9.49-2.75.73-2.28,1.45l1.9-.26c.04.11-.65.3-.12.4Z"/>
        <path d="m386.67,75.73l.67-.06c-.76-.06-1.31-.2-2.32-.5-1.11.2-1.34.35-1.42.48l3.3.02-.23.06Z"/>
        <path d="m390.35,75.62c-.51.44-2.12.65-1.13,1.1,1.97-.06,1.37-.39,2.55-.6-3.18.18.91-.26-1.39-.45.62-.09,1.18-.12,1.71-.15-.57-.04-1.13-.09-1.65-.16.03,0,.05.02.07.03h.01s0,0,0,0c.14.05.18.08.03.05-.01,0-.05,0-.07.01-.02.06-.08.11-.14.17-.92-.07-.15-.11.14-.17.01-.02.03-.04.04-.06h-.01s-3.18.28-3.18.28c.67.05,1.52.02,3.01-.05Z"/>
        <path d="m406.4,77.37c-.1-.04-.1-.07-.1-.1-.2.06-.28.1.1.1Z"/>
        <path d="m405.08,77.14c.23-.07.42-.24,1.17-.22.66.11,0,.21.04.35.45-.13,1.58-.35.15-.52l-.22.06c-1.29-.11-2.95-.61-2.73-.67.39.38.72.65,1.59,1Z"/>
        <path d="m397.61,76.5l-2.65.28,1.36.34-.07-.22c1.51.05,1.18-.22,1.36-.4Z"/>
        <polygon points="383.12 75.43 383.47 74.98 381.94 75.63 383.12 75.43"/>
        <polygon points="379.68 75.51 379.81 75.11 378.9 75.35 379.68 75.51"/>
        <path d="m184.91,81.99l-.78.14c.37-.05.6-.09.78-.14Z"/>
        <path d="m190.56,81.85l.13-.2c-.26.12-.36.2-.13.2Z"/>
        <path d="m294.86,75.09c-1.14-.36-2.41-.93-2.27-.48l.35.43c.79-.08,1.4-.04,1.92.05Z"/>
        <path d="m236.8,78.4c.11.04.22.08.34.12.27-.15.53-.3.76-.43-.33.09-.7.2-1.1.31Z"/>
        <path d="m236.03,80.21l-1.5-.25c.34.09.82.17,1.5.25Z"/>
        <path d="m154.08,83.5l-.89.47c1.42-.05.79-.25.89-.47Z"/>
        <path d="m344.34,75.29c-.98-.18-1.76-.26-2.45-.29,1.18.26,2.13.64,2.45.29Z"/>
        <path d="m186.99,77.33c-.48.09-.68.19-.66.28.49-.09.77-.18.66-.28Z"/>
        <path d="m339.06,74.98c.17.04.34.07.52.1.72-.07,1.44-.12,2.32-.08-.87-.2-1.87-.32-2.84-.02Z"/>
        <path d="m42.14,87.71c-.08-.02-.18-.03-.25-.05-.02.06.09.06.25.05Z"/>
        <path d="m9.53,83.19c.32-.02.84-.01,1.34,0-.24-.03-.64-.04-1.34,0Z"/>
        <path d="m365.83,75.2c.73-.02.12-.05,0,0h0Z"/>
        <path d="m369.37,76.96c-.16.05-.28.11-.3.21.06-.1.17-.17.3-.21Z"/>
        <path d="m331.74,77.64s-.04,0-.06,0c.22.09.18.07.06,0Z"/>
        <path d="m366.93,75.41c-.27-.06-.59-.11-.94-.14.15.04.44.08.94.14Z"/>
        <path d="m366.79,75.2c.25.02.45.04.64.05.09-.07.01-.12-.64-.05Z"/>
        <path d="m364.81,75.21c.42,0,.81.03,1.19.06-.14-.03-.2-.06-.16-.07-.21,0-.52,0-1.02,0Z"/>
        <path d="m102.11,84.26s-.11-.02-.16-.03c-.73.22-.41.17.16.03Z"/>
        <path d="m275.83,79.74s.05-.02.08-.02c-.03,0-.08-.01-.11-.01l.02.04Z"/>
        <path d="m273.21,80.09c1.11-.55,1.75-.49,2.6-.39l-.88-1.24-1.72,1.63Z"/>
        <path d="m171.39,82.56l1.86.33c-2.21.71-3.82.55-2.07,1.04.22-1.37,7.17-.38,7.38-1.74l1.23.25c-.35,0-.4.08-.75.08,2.39.57,1.73-1.04,4.78-.94,1.07.07,1.81.25,1.09.43l2.36-.41c.69,0,.53.25-.16.24l3.61-.22-.03.04c.51-.23,1.67-.59,2.23-.75.92.17-.46.16-.22.32l1.99-.39c.82.33-.82.72-2.21.71,1.91,1.3,1.65-.4,5.7.29l-1.88.22c1.24.74,2.7.42,4.85.84-.51-.24-4.31-1.09-2.15-1.49.61.09,1.42.11,2.59-.19.02.48,1.16.33,2.59.27l-.08.64c1.54-.23,1.41-.55,2.31-.86,1.73.02,2.1.5,2.51.91,2.76.03-1.93-.74,1.34-.95,2.3.19,3.91-.11,6.64-.56,1.61.18-.27.4.31.57l1.41-.54c.35,0,.24.16.18.24,1.2-.23.08-.64,1.97-.86.49-.72,3.9.93,6.22.09.58.17-.27.4-.09.64,3.19-.59,2.74-.44,5.36-1.2l2.25.37c-1.66-.45.44-1.06,2.27-1.56-.59-.22-1.09-.41-1.43-.5l2.94-.4c.36.1.07.32-.41.6.2-.06.39-.11.54-.16,1.06.21.52.59-.23.97-.36-.13-.72-.25-1.07-.37-.72.4-1.39.85-1.23,1.22.19-.08.56-.15.96-.19-.19.11-.31.21-.22.27.1.07.41-.08.88-.26l.68.7.16-.29,3.86.38c2.74-.77,5.12-1.86,9.49-2.23-1.08.54-.22.86-.27,1.48-1.2-.64-3.38.34-5.65.24,1.18.05.93.35.63.46l4.03-.67c-.08.51.86.36,1.92.56-.81-.99,3-.72,4.64-1.04.11.34-.28.68-2.29.63,2.22.72,2.84-1.22,5.02-.61-.49.02-.75-.03-.95.14,1.14-.31,3.94-.12,3.29.19h-.49c3.25.08,9.9-.11,10.37-.96.03.11-.41,1.03-.61,1.2l5.77-2.92c-.5.74,1.47,2.46-1.22,2.9.77.1,1.73.21,3.36-.07-.53-.1-1.33-1.04-.6-1.12,1.99.79,1.38.42,3.83,1.09-.79-.15.08-1.3,1.33-1.27-.19.17.11,1.13-.34,1.25l3.11-1.14c-.78.21-.13.95.57,1.27-.32-.22,2.69,0,3.52-.11l-1.32-.25c3.52.15,3.46-1.6,6.95-1.57-.42.24-1.04,1.44.74,1.57.81-.58,3.59-2.78,6.68-3.23l.59.33,2.37-.38c-1.47.87-5.61,2.7-7.86,3.42,1.32.26.37.39,2.34.35.7.31-1.07.47-1.65.49l4.59.19c-.21-.67,3.51-.68,3.33-1.24l-4.98.71c-.2-.67,2.88-1.92,6.13-1.81.83.27-.62,1.2-.55,1.42.42-.23,3.08-.45,3.38-.29l-1.38.36c1.81.25,2.95-.89,5.13-.25.75.04,2.24.87,2.37.47-1.22-.77-1.46-3.14-.64-3.72.26.05,3.94.74,4.8,1.12,1.23.6-1.86,1.43-.81,1.95.05-.18.73-.41,1.01-.48.79.16-.33.57,1.39.49.29-.68,3.48.06.81-.58,1.68-.19,1.78.14,3.75.12-.62-.44,1.77-1.49,3.45-1.67-.1.17.28.4.46.5,3.43.08,5.28.4,8.48.42.29.17,1.84.38,1.18.67.46-.12.89-.34,1.87-.35,1.91.61-2.2.07-.75.79.13-.39,2.56-.52,3.97-.76-.43-.62-3.25-.15-4.66.08,0-.84,2.46-1.7,5.81-2.06,2.66-.18,1.15.56,1.61.44,5,.2,4.28-1.44,8.42-.77,1.64.56.06,1.07.42,1.46-2.17.17-3.32-.39-4.79-.38l1.81.27c-.69.17-2.14.29-2.93.13,1.37.49,8.44.2,12.29.7.69-.17,1.87-.34,1.32-.56l-1.22.06c-1.12-.45,2.31-.57.76-.79,1.64-.28,3.49-.73,5.78-.46l.42.62c-.05-.18-1.5-.38-2.15-.2.96-.26,3.52.87,4.58.08l-1.61-.44c1.64-.28,3.67-.92,5.7-.73-.92-.61-.47.07-1.91-.64,1.25.9-5.2-.08-3.2.86-1.48-.84-2.56-.37-4.49-1.1.06.2.68.4-1.03.27-.08.06-.26.13-.38.17-.05,0-.07-.01-.12-.02.03,0,.06.02.09.03-.07.03-.08.04.04,0,.41.09.74.21.87.32-.86.45-3.59.4-4.51.63-1.02-.11.43-.23-.12-.45l-1.38.34c-.13-.45-2.69-.78-.29-1.01l-2.16-.05c-1.27-.27-3.01-.39-4.09-.22-1.02-.11-2.58.47-1.69.13l-3.39.25-.03-.11c-3.34-.09-6.88.67-10.69-.17-1.13.11-2.29.24-4.17.1l-.36-.39c-1.44.13-4.33-.41-4.96-.01-1.55-1.06-7.01-.26-9.54-.44l-.1.51c-1.75-.03-3.42.11-5.59.31l.13.45c-1.87.36-4.81-.32-7.77-.27.2-.17.95-.13,1.48-.03-3.54-1-7.45.76-10.66.03-.8.16-1.38.11-1.94,0,.07,0,.14-.01.2-.02-.08,0-.2,0-.33,0-.35-.07-.72-.16-1.11-.23.34.11.66.19.93.23-.62.01-1.55.07-2.46.19l-.39-.48c-.07,0-.13,0-.21.02-.9-.17-.72.23-.24.59-.46.08-.88.18-1.21.3-.73-.77-2.4.28-3.4-.55-.61.41-4.6.33-5.08,1.19-.03-.11-.3-.16.19-.17-1.02-.09-2.04-.17-2.96.07l-.44-.61-2.22.85c-1.36-.36-1.92-.57-.58-1.06-3.24.76-2.63.3-5.38,1.05l.13-.4c-.99.03-2.56.57-3.16.25-2.22-.72-10.92.04-16.6-.57,1.12,1.15-2.64-.48-2.85.43-.33-.27-1.13-.41-.21-.67-2.89.32-4.35-.36-6.34.43-.34-.27.61-.41.31-.57-.23.06-.91.26-1.22.1-.3-.16.42-.24.87-.37-2.95.1-3.24.95-3.44,1.75-1.5-.35-2.25-.28-3.32.27-.53-.25-1.4-.5.43-.64-1.03-.02-6.31-.25-6.41.39-.33-.16-1.44-.02-1.71.06-2.32.01-2.52-.05-4.8.07l.63.09c-.88.79-1.89.22-3.72.35l.05-.08c-4.22-.46-1.81.31-5.97-.23l.24.47c-.36,1.04-3.69-.53-6.09-.06l.88.25c-1.3.39-3.71-1.3-5.04-1.4-.29-.08.45-.16.85-.23-3.47-.51-.43.64-3,.86-.48-.33.59-.88-1.15-.89-.87-.25-5,1.23-7.38.66.53.25,1.05.49-.14.72-1.83.15-4.99-.84-6.62.04-.24-.06-.33-.13-.34-.19-1.4.25-4.54.49-5.37.96-1.35-1.61-8.69,1.09-8.7-.43l-4.31.22.11-.16c-2.76,0-3.72.4-4.68.8-.64-.08-.18-.24-.13-.32-4.04-.16-4.44-.08-7.78.8l-.37-.48c-.9.32-5.85-.56-9.78.17.04-.06.11-.16.43-.24-4.42.75-10.69-.96-12.25.92l-2.91.57c3.8-.02-.53.81,1.04,1.04-1.49.17-3.88-.38-2.05-.55l.29.08c.63-.97-4.73-.12-4.65-.77-7.46.38-14.75.23-21.74.53l.84.69-2.44.08c-.65-.14-.89-.53.85-.59-.93-.37-2.9.49-2.94.65-3.42-.13,1.29-.92.24-.88l-1.41.13.32.07c-1.13.36-1.22.68-3.31.75-1.33-.08-.7-.42-1.22-.42,0-.05-.18-.07-.8.02l-3.07.09,1.25.52c-1.35.35-2.89.11-1.44.69-2.13-.9-11.46.18-12.75-.08-1.89.5-3.77.57-6.1.62.58.1.96.73-1.06.73.68-1.36-3.7-.43-5.36-1.34,1.47.59-5.7.36-3.4,1.19-1.68-.05-.12-.5-1.4-.77-3.97.64-8.8-.07-13.72.2-.07.18.76.43-.29.71l-2.62-.83c-.97.1-.88,1.03-2.67.44.25.14.63.36-.02.43-9.66-.72-19.75.83-29.52-1.03,1.32.37.43.38-.58.38.66.09-.03.43.1.67-1.36-.24-2.73-.51-4.09-.77-.77.64-4.4-.1-4.85.52l1.3-.07c-1.76.69,2.37,1.74,2.08,2.69,1.96-.77,5.09,1.42,8.31.25.7.21-.61.3-.23.53.82-.39,1.79-.46,3.6-.24l-.21.1c5.08-.04,7.26.41,12.97.67l-.42-.47c1.23.06,1.49.21,2.06.33,1.41-.72-3.45-.03-2.16-.83,1.63.97,8.65-.01,9.76,1.05,1.89-.02-.56-.54,1.33-.56l.5.29.47-.39c1.24.05,1.87.41,1.92.66-.3-.03-.85.08-1.17.11,1.61.34,4.52-.2,5.08-.1l-1.82-.14c5.15-.37,11.45-.16,16.4-.93l-.38-.21c3.78-.55,3.05.14,7.21-.21l-.15.06c.83-.25,1.93-.41,3.07-.44-1.04.31,2,.43.63.77,4.1-.61,2.02-.43,4.7-1.38l.64.34c.91-.38.98-.56,3.05-.75-1.69.4,1.35.5-.54,1.01,4.4.61,6.44-1.11,8.5-.03,1.95-1.12-3.8-.39-2.69-.66-.95-.29,1.62-.85,2.99-.81,1.39-.05,2.43,1.2,5.94,1.01-.35.01-.37.09-.72.1,1.32.2,2.55-.48,4.18-.14.87-.66,2.09-.07,2.31-.87l-3.2.34c1.81-.3,3.47-1.31,6.5-1.01-.23.17-1.11.43-1.72.57.89.19,1.68-.24,2.6-.04-.22.8-3.9.37-5.82,1.07.96.29,3.66-.76,2.73.15,1.36-1.16,3.46-.03,5.79-.98l-.13.48c.37-.09,1.14-.36,1.83-.38l-1.22.68c1.89-.62,3.72.27,5.55-.1-3.85.2-.89-.53-2.54-.8,4.72-.87,2.8,1.11,8.11.62-.72.1-2.72-.15-1.6-.43,1.02.05,2.37.16,3,.39,3.52-.26-.56-.46.92-.82,1.23.52,1.72-.31,3.26-.57l.03.48c4.03.13,1.02-1.05,4.66-.84l-1.5.74,1.88-.26-.37.56c2.03-.49,2.68-.41,4.69-.35-.48-.32.23-.89,2.01-.98,1.23.24-.66.49,1.86.31-.56.33-1.17.73-2.28.33-.11.16-.55.33-.66.49,1.32.27,3.29-.07,4.2-.1-.35,0-.77-.01-.99-.07l3.63-.81c.58.16.13.32-.32.48.74-.08,1.24-.32,2.33-.41-.27.4-.18.8-1.72,1.05l3.47-.57c.24.16,1.81.4,1.36.56,1.94.16,4.71-.95,7.29-.73.13-.08.39-.16.94-.24,2.41,0,4.56.41,7.4-.23l1.64.64c2.23-.24-2.22-.81,1.49-1.21,2.63-.32,1,.56,1.94.73,1.3-.4,3.55-1.19,5.99-.7-.8.16-1.43.08-2.18.15Zm27.57-1.16c-.53.12-1.59.46-1.99.18.59-.57,1.07-.32,1.99-.18Zm41.92-2.14c-.39.17-1.01.1-1.71-.07.5-.05,1.07-.04,1.71.07Zm116.92-3.77s-.04.01-.06.02c-1.19-.2-.77-.12.06-.02Zm2.48.24c.25-.06.23-.13.13-.2-.17.12-.73.12-1.37.08.17.13.49.22,1.24.12Zm-266.13,5.69l.49.1c-1.08.19-.78.05-.49-.1Z"/>
        <path d="m236.13,80c-.15-.08-.2-.17-.23-.26-.21.09-.21.18.23.26Z"/>
        <path d="m154.25,83.41h-.08s-.07.06-.08.09l.17-.09Z"/>
        <path d="m321.85,79.51c-.51-.07-.79-.16-.98-.25-.03.12.2.22.98.25Z"/>
        <path d="m373.4,75.08l-1.58.11c.76-.02,1.04.09,1.42.17-.03-.11-.33-.28.16-.28Z"/>
        <path d="m387.15,78.02c.23-.06.49-.01.72-.08l-.07-.22c-.99.03-1.68.22-.65.3Z"/>
        <path d="m374.85,76.7c.12.41,1.12.27,2.23.2-.07,0-.13,0-.2,0,.33-.57-.85-.38-2.03-.2Z"/>
        <path d="m377.34,76.88c.34-.02.69-.03,1.03,0,.13-.23-.42-.05-1.03,0Z"/>
        <path d="m363.42,75.5c.53.11.34-.51.63-.34.6-.51-3.53.58-.63.34Z"/>
        <polygon points="375.74 78.04 375.35 77.54 374.72 77.93 375.74 78.04"/>
        <path d="m366.97,77.57l1.77.16c-.03-.08.2-.13.48-.16-1.09-.03-2.29-.15-2.25,0Z"/>
        <path d="m369.22,77.57c.57.02,1.11.01,1.43-.07-.31,0-.97.01-1.43.07Z"/>
        <polygon points="373.31 78.17 372.79 78.06 371.53 78.01 373.31 78.17"/>
        <path d="m347.87,77.23l-1.94.12c-.2.17.33.28,1.05.22.47-.12,1.19-.17.89-.34Z"/>
        <path d="m353.72,78.66c-.52-.11-.56-.22-.85-.39l-.07.62.92-.23Z"/>
        <path d="m348.07,78.75c-.19.17-2.82.47-.36.45.2-.17,2.14-.29.36-.45Z"/>
        <polygon points="318.86 77.8 319.35 77.79 319.29 76.78 318.86 77.8"/>
        <path d="m293.13,80.29c2.3.23.54-.63,2.62-.34.54-.24-1.7-.24-1.15-.45-1.38.26-2.11.12-1.47.79Z"/>
        <path d="m294.6,79.5c.22-.04.46-.09.71-.16-.4.07-.59.12-.71.16Z"/>
        <polygon points="4.15 82.47 2.69 82.21 3.62 82.59 4.15 82.47"/>
        <path d="m1.3,83.14l-.32-.66-.91.56c.33-.02.98-.05,1.23.1Z"/>
        <path d="m203.1,82.59l.11-.16c-.23-.16-.58-.17-1.27-.17l1.16.33Z"/>
        <polygon points="183.07 82.69 183.41 82.69 182.75 82.12 183.07 82.69"/>
        <path d="m166.29,83.99c.69,0,1.49-.16,2.18-.16-1.49.15-2.39-.57-2.18.16Z"/>
      </g>
    </g>
  </g>
</svg>