<?xml version="1.0" encoding="UTF-8"?>
<svg id="Layer_2" data-name="Layer 2" xmlns="http://www.w3.org/2000/svg" viewBox="0 0 445.6 90.91">
  <defs>
    <style>
      .cls-1 {
        fill: #231f20;
      }
    </style>
  </defs>
  <g id="Layer_1-2" data-name="Layer 1">
    <g>
      <path class="cls-1" d="m44.2,48.8c0,10.2-7.9,20.4-22.5,20.4-10.4,0-19-4.9-21.7-6.5l4.2-9.2c.1.1,11,6.4,16.7,6.4,7,0,10.5-3.7,10.5-9.9s-3.8-8.2-10-10.7C9.4,34.3,2.2,29.6,2.2,18,2.2,8.2,11.1,0,23.5,0c9.3,0,17.7,4,19.6,5.3l-4.9,8.6c0-.1-8-4.6-14.1-4.6-4.8,0-8.9,2.2-8.9,7,0,6,3.8,9.4,12,12.6,10.6,4.2,17,8.8,17,19.9Z"/>
      <path class="cls-1" d="m80.6.9l26.1,67.7h-12.7l-6.2-17.7h-24.4l-6.4,17.7h-11.8L71.2.9h9.4Zm-4.9,13.3c-1.8,5.9-5,16.3-9.1,27.9h18.1c-4.2-11.9-7.4-22.4-9-27.9Z"/>
      <path class="cls-1" d="m151.05,70.02l.15-7.91v-1.4c-3,5.6-9.2,8.7-16.9,8.7-16.7,0-23.8-13.5-23.8-33.7S119.9,0,140.1,0c8.9,0,15,3.5,18.4,7.1l-5.8,7.6c-3.4-3.4-8.8-5.5-14-5.5-11.4,0-15.3,11.4-15.3,25.5,0,15.1,3.7,25.4,13.2,25.4,6.2,0,13.4-5.7,13.4-15.2v-9.1h11.7v33.1c0,1.15-.05,1.25-.14,2.29"/>
      <path class="cls-1" d="m213.9.9v9h-28.3v18.9h23.3l-1.5,9.1h-21.8v21.7h29.8v9h-41.7V.9h40.2Z"/>
      <path class="cls-1" d="m244.7,90.91l-5.78-9.76c10.5-5.2,10.77-9.2,11.58-13.84V.9h11.9v65.2c0,16.1-9.6,20.7-17.7,24.8Z"/>
      <path class="cls-1" d="m316.6.9v9h-28.3v18.9h23.3l-1.5,9.1h-21.8v21.7h29.8v9h-41.7V.9h40.2Z"/>
      <path class="cls-1" d="m352.7,69.2c-20,0-28.3-12.4-28.3-33.6S333.7,0,354,0s28.2,13.1,28.2,34.2-9.3,35-29.5,35Zm1.4-9.2c11.6,0,15.3-10.6,15.3-24.8s-3-26-16.8-26c-11.6,0-15.3,11-15.3,25.3,0,13.5,3,25.5,16.8,25.5Z"/>
      <path class="cls-1" d="m445.6.9v67.8h-9.9l-22.8-35.6c-2.5-3.8-5.8-9.2-8.4-13.3.4,4.3.8,9.2.8,13.4l.3,35.4h-11.9V.7h9.3l23.5,35.2c2.6,3.8,5.5,8.4,8.1,12.4-.3-4.3-.6-8.9-.6-12l-.3-35.4h11.9Z"/>
    </g>
  </g>
</svg>