<?xml version="1.0" encoding="UTF-8"?>
<svg id="Layer_2" data-name="Layer 2" xmlns="http://www.w3.org/2000/svg" viewBox="0 0 113.97 222.27">
  <defs>
    <style>
      .cls-1 {
        fill: #fff;
        opacity: .43;
      }

      .cls-2 {
        fill: #8db5a5;
      }

      .cls-3 {
        fill: #a0c69b;
      }

      .cls-4 {
        fill: #76917f;
      }

      .cls-5 {
        fill: #9cbca2;
      }

      .cls-6 {
        fill: #f4f4f4;
        stroke: #7a7a7a;
        stroke-miterlimit: 10;
        stroke-width: .25px;
      }
    </style>
  </defs>
  <g id="Layer_1-2" data-name="Layer 1">
    <g>
      <g>
        <path class="cls-6" d="m3.54,66.59s.25,33.92,9.35,53.94,11.65,14.56,5.1,32.03S7.79,172.21.15,216.98c0,0-.57,5.09,3.83,5.16,5.04.08,4.54-2.58,5.04-5.16,1.69-8.74,2.05-22.12,9.33-29.12s9.42,7.69,34.01-7.44,37.7-22.04,24.41-24.22-43.79,2.85-52.2,12.16-1.44-9.25,3.63-18.71,22.19-35.67,36.92-50.59,36.93-44.54,43.12-58.48,10.65-24.31-5.77-13.85c-16.43,10.46-20.8,12.83-32.08,30.21s-6.92-5.33-10.19-16.36-3.44-18.35-20.83-35.8-9.82,19.31-8.69,27.68,1.24,47.14-10.1,24.48-17.53-1-17.05,9.66Z"/>
        <path class="cls-3" d="m37.27,7.13s5.44,6.45,12.23,14.95,11.21,36.69,7.47,43.82c-2.19,4.18-5.89,7.31-8.58,9.18-2.08,1.45-4.79,1.7-7.1.65-2.55-1.16-5.75-3.12-7.42-6.09-3.06-5.44,4.08-24.8,0-38.73-2.7-9.22-2.17-18.9-1.5-24.38.21-1.76,2.44-2.4,3.57-1.03l1.33,1.62Z"/>
        <path class="cls-5" d="m8.61,79.07s2.48,51.84,16.58,44.57c14.09-7.27,7.78-36.24-6.42-62.05-14.2-25.8-10.16,17.48-10.16,17.48Z"/>
        <path class="cls-2" d="m24.64,178.37s-7.08-13.33,33.3-18.29c40.39-4.96,4.33,7.61-2.92,14.36-7.25,6.75-29.12,13.76-30.38,3.93Z"/>
        <path class="cls-4" d="m107.2,27.17c-2.91,2.62-6.5,5.39-10.58,7.62-11.21,6.11-9.17,4.42-23.44,23.44-14.27,19.02-8.05,28.87-8.05,28.87l.05.04c-.23-2.65.33-7.34,4.34-14.64,6.94-12.64,24.52-18.1,32.95-29.25,2.47-3.93,3.15-5.61,3.29-5.99.02-.06.05-.12.08-.18l4-7.86c.85-1.67-1.24-3.3-2.64-2.04Z"/>
        <path class="cls-5" d="m69.52,72.5c-6.94,12.64-3.57,17.44-3.57,17.44l.42-.13c22-25.93,31.8-39.7,36.12-46.56h0c-8.43,11.16-26.02,16.61-32.96,29.26Z"/>
        <g>
          <path class="cls-4" d="m3.54,218.91s1.02-58.09,49.94-114.14c31.24-35.79,43.91-53.44,48.99-61.52h0c-5.08,8.08-15.76,25.73-46.99,61.52C6.56,160.82,5.54,218.91,5.54,218.91h-2Z"/>
          <path class="cls-4" d="m45.09,40.57s2.18,66.7-5.71,82.16l3.16-4.02c2.58-4.22,6.05-39.03,2.55-78.14Z"/>
          <path class="cls-4" d="m27.31,143.85c3.92-17.78-6.37-55.36-6.37-55.36,0,0,8.76,39.16,4.84,56.94l1.53-1.58Z"/>
          <path class="cls-4" d="m9.02,192.49c2.14-9.25,17.11-14.59,23.77-16.41,7.26-1.99,19.57-7.72,19.57-7.72,0,0-12.52,4.89-19.25,6.42s-20.36,6.38-24.09,14.83v2.88Z"/>
        </g>
      </g>
      <g>
        <g>
          <path class="cls-1" d="m73.05,167.59c-1.86-3.4-4.03-7.39-6.41-11.84-1.83.07-3.75.19-5.71.38,3.15,4.12,6.5,8.39,10.04,12.81.72-.46,1.42-.92,2.08-1.35Z"/>
          <path class="cls-1" d="m41.31,128.88c2.12-3.06,4.38-6.23,6.72-9.38-9.81-20.02-19.32-41.29-24.26-57.4-.94-1.13-2-2.82-3.18-5.17-2.43-4.86-4.63-7.68-6.58-9.01l-2.31,2.92s-11.04,17.34,29.61,78.04Z"/>
        </g>
        <path class="cls-1" d="m29.27,60.8c2,5.29,5.08,11.08,9.86,16.57l3.05-2.15s-12.92-32.87-10.18-40.51l-1.01,1.08c.42,6.88.3,19.23-1.71,25.01Z"/>
      </g>
    </g>
  </g>
</svg>