<?xml version="1.0" encoding="UTF-8"?>
<svg id="Layer_2" data-name="Layer 2" xmlns="http://www.w3.org/2000/svg" viewBox="0 0 172.73 129.96">
  <defs>
    <style>
      .cls-1, .cls-2 {
        fill: #fff;
      }

      .cls-3 {
        fill: #aaa;
        stroke: #000;
        stroke-width: .5px;
      }

      .cls-3, .cls-4, .cls-5 {
        stroke-miterlimit: 10;
      }

      .cls-6 {
        fill: #232323;
      }

      .cls-7 {
        fill: #8e8e8e;
      }

      .cls-2 {
        opacity: .43;
      }

      .cls-4 {
        stroke: #c6095f;
        stroke-width: .75px;
      }

      .cls-4, .cls-8 {
        fill: none;
      }

      .cls-5 {
        fill: #f4f4f4;
        stroke: #7a7a7a;
        stroke-width: .25px;
      }
    </style>
  </defs>
  <g id="Layer_1-2" data-name="Layer 1">
    <g>
      <path class="cls-5" d="m79.8.5l82.82,16.46s12.29.67,9.6,16.46c-2.69,15.79-9.6,52.97-9.6,52.97,0,0-2.05,8.49-10.16,14.54-6.21,4.62-24.95,16.32-33.43,21.57-2,1.24-3.9,2.59-5.8,3.97-3.16,2.28-11.24,6.12-25.33.33-18.79-7.73-79.27-31.02-79.27-31.02,1.55.12-21.05-6.05,1.7-19.36,24.76-14.49,35.65-18.43,35.65-18.43-.02.03,7.01-3.67,10.06-14.48,3.02-10.74,9.38-33.09,9.38-33.09,0,0,.95-12.57,14.38-9.9Z"/>
      <path class="cls-3" d="m8.5,89.35l89.12,32.98c1.98.73,4.19.5,5.97-.64l48.49-30.87c.15-.1.12-.33-.05-.39l-95.99-31.51-47.82,26.62c-1.56.87-1.39,3.17.29,3.79Z"/>
      <path d="m56.04,58.93l15.96-49.25c.55-1.7,2.31-2.7,4.06-2.3l87.04,19.88c1.85.42,3.02,2.27,2.6,4.12l-13.23,59.21-96.42-31.65Z"/>
      <polygon class="cls-1" points="59.96 57.02 75.18 10.4 162.62 30.08 150.04 86.39 59.96 57.02"/>
      <path class="cls-6" d="m57.78,64.11l81.57,27.24c.72.24.83,1.22.18,1.61l-21.53,13.06c-1.1.67-2.45.79-3.66.32l-77.92-30.18c-.71-.27-.77-1.24-.11-1.61l18.13-10.12c1.02-.57,2.23-.68,3.34-.31Z"/>
      <path class="cls-7" d="m60.22,88.44l11.41,4.4c2.15.83,2.52,3.71.65,5.05l-6.02,4.35c-1.86,1.34-4.26,1.67-6.41.87l-11.98-4.44c-2.22-.82-2.57-3.82-.59-5.13l6.67-4.42c1.86-1.23,4.19-1.49,6.27-.68Z"/>
      <path class="cls-4" d="m108.59,40.1c-.12-2.4-1.51-4.52-2.89-6.49-1.09-1.55-2.66-3.28-4.51-2.87-1.43.31-2.29,1.87-2.31,3.34s.61,2.84,1.22,4.17c2.12,4.56,4.24,9.13,6.36,13.69.29-2.87,3.75-3.95,6.32-5.26,2.88-1.46,5.22-3.97,6.47-6.96.13-.32.26-.65.22-.99-.04-.39-.27-.74-.52-1.04-1.39-1.66-3.67-2.54-5.82-2.24s-4.1,1.75-4.99,3.73"/>
      <g>
        <path class="cls-8" d="m91.68,2.86l-11.88-2.36c-13.43-2.67-14.38,9.9-14.38,9.9,0,0-6.36,22.35-9.38,33.09-3.05,10.82-10.08,14.52-10.06,14.48,0,0-10.88,3.95-35.65,18.43-22.75,13.31-.15,19.47-1.7,19.36,0,0,10.42,4.01,23.95,9.26C58.82,35.92,79.92,11.49,91.68,2.86Z"/>
        <path class="cls-8" d="m162.62,16.95l-40.02-7.95c-9.47,6.4-26.01,27.8-26.01,27.8l-3.41-1.52c5.02-15.35,15.59-24.32,20.81-27.99l-7.12-1.41c-20.87,17.87-54.7,72.6-71.16,100.36,18.62,7.23,41.79,16.27,52.19,20.55,14.09,5.79,22.17,1.95,25.33-.33,1.9-1.37,3.81-2.73,5.8-3.97,8.48-5.25,27.22-16.94,33.43-21.57,8.12-6.05,10.16-14.54,10.16-14.54,0,0,6.91-37.19,9.6-52.97,2.69-15.79-9.6-16.46-9.6-16.46Z"/>
        <path class="cls-2" d="m106.87,5.88l-15.2-3.02c-11.76,8.63-32.86,33.06-59.09,102.17,1.03.4,2.07.8,3.13,1.21C52.18,78.48,86.01,23.74,106.87,5.88Z"/>
        <path class="cls-2" d="m93.18,35.28l3.41,1.52s16.54-21.4,26.01-27.8l-8.61-1.71c-5.23,3.67-15.79,12.64-20.81,27.99Z"/>
      </g>
    </g>
  </g>
</svg>