<?xml version="1.0" encoding="UTF-8"?>
<svg id="Layer_2" data-name="Layer 2" xmlns="http://www.w3.org/2000/svg" viewBox="0 0 144.3 126.4">
  <defs>
    <style>
      .cls-1 {
        fill: #c6095f;
      }

      .cls-2 {
        fill: #f4f4f4;
        stroke: #7a7a7a;
        stroke-miterlimit: 10;
        stroke-width: .25px;
      }
    </style>
  </defs>
  <g id="Layer_1-2" data-name="Layer 1">
    <g>
      <path class="cls-2" d="m52.71.43c-6.67.15-13.52-.24-20.09,1.2C21.94,3.96,9.4,11.82,4.01,21.53c-2.79,5.03-2.8,10.09-3.33,15.62C0,44.21-.51,51.26,2.06,58.05c5.15,13.61,11.85,18.38,20.25,27.75s15.7,18.43,23.7,26.35c3.26,3.23,5.82,7.24,9.77,9.58,2.75,1.63,5.86,2.54,8.97,3.27,4.29,1.02,8.76,1.75,13.1.95,5.16-.95,9.67-3.95,14.02-6.88,2.59-1.75,5.19-3.5,7.58-5.53,2.16-1.84,4.12-3.89,6.05-5.96,10.04-10.74,19.43-22.09,28.12-33.96,9.11-12.46,12.65-28.27,9.39-43.35-1.1-5.11-2.85-9.54-6.84-15.1-4.35-6.05-14.04-10.51-21.08-13.1-5.37-1.98-10.63-1.64-16.3-1.75-15.36-.29-30.71-.23-46.07.12Z"/>
      <g>
        <rect class="cls-1" x="31.09" y="12.8" width="16.82" height="16.82"/>
        <rect class="cls-1" x="47.91" y="12.8" width="16.82" height="16.82"/>
        <rect class="cls-1" x="13.61" y="29.62" width="16.82" height="16.82"/>
        <rect class="cls-1" x="13.61" y="46.43" width="16.82" height="16.82"/>
        <rect class="cls-1" x="31.09" y="63.25" width="16.82" height="16.82"/>
        <rect class="cls-1" x="47.91" y="79.99" width="16.82" height="16.82"/>
        <rect class="cls-1" x="98.35" y="12.84" width="16.82" height="16.82" transform="translate(213.52 42.5) rotate(-180)"/>
        <rect class="cls-1" x="81.54" y="12.84" width="16.82" height="16.82" transform="translate(179.89 42.5) rotate(-180)"/>
        <rect class="cls-1" x="115.83" y="29.66" width="16.82" height="16.82" transform="translate(248.48 76.13) rotate(-180)"/>
        <rect class="cls-1" x="115.83" y="46.47" width="16.82" height="16.82" transform="translate(248.48 109.76) rotate(-180)"/>
        <rect class="cls-1" x="98.35" y="63.29" width="16.82" height="16.82" transform="translate(213.52 143.39) rotate(-180)"/>
        <rect class="cls-1" x="81.54" y="80.03" width="16.82" height="16.82" transform="translate(179.89 176.87) rotate(-180)"/>
        <rect class="cls-1" x="64.72" y="29.62" width="16.82" height="16.82"/>
        <rect class="cls-1" x="64.72" y="96.8" width="16.82" height="16.82"/>
      </g>
    </g>
  </g>
</svg>