<?xml version="1.0" encoding="UTF-8"?>
<svg id="Layer_2" data-name="Layer 2" xmlns="http://www.w3.org/2000/svg" viewBox="0 0 142.06 366.83">
  <defs>
    <style>
      .cls-1 {
        fill: #f4f4f4;
        stroke: #7a7a7a;
        stroke-miterlimit: 10;
        stroke-width: .25px;
      }
    </style>
  </defs>
  <g id="Layer_1-2" data-name="Layer 1">
    <g>
      <path class="cls-1" d="m.15,125.79c-.02,3.23,0,6.47,0,9.78v192.47s-1.25,23.26,12.2,27.21,45.6,10.36,45.6,10.36c0,0,14.68,2.47,26.77,0s45.6-10.85,45.6-10.85c0,0,10.38-1.65,11.37-26.71v-189.47c0-8.49.45-17.13.14-25.58-.15-4.15-1.55-8.67-5.11-10.81-2.56-1.54-5.71-1.56-8.69-1.87-9.31-.97-12.2-14.71-15.77-22.37-4.58-9.85-9.16-19.69-13.73-29.54-3.19-6.87-6.68-13.72-10.04-20.83-2.62-5.53-4.98-11.18-7.26-16.86-2.45-6.12-10.41-21.53-21.4,2.18-.01.03-.03.06-.04.09-6.43,14.42-12.85,28.85-19.28,43.27l-13.26,29.77c-1.61,3.61-3.12,7.28-4.83,10.85-3.13,6.52-5.34,4.86-12.38,5.41-2.95.23-6.06,1.3-7.68,3.77-1.15,1.75-1.38,3.92-1.58,6-.46,4.66-.58,9.19-.61,13.74Z"/>
      <g>
        <g>
          <path d="m13.49,341.04v-193.6c0-2.59.2-5.27,0-7.86,0-.11,0-.23,0-.34l-1.1,1.45c6.67-1.86,13.33-3.72,20-5.58,10.62-2.96,21.24-5.93,31.86-8.89,2.43-.68,4.87-1.36,7.3-2.04l-1.9-1.45v219.65c0,2.98-.07,5.96,0,8.94,0,.13,0,.26,0,.39,0,1.93,3,1.93,3,0v-219.65c0-2.98.07-5.96,0-8.94,0-.13,0-.26,0-.39,0-.97-.96-1.71-1.9-1.45-6.67,1.86-13.33,3.72-20,5.58-10.62,2.96-21.24,5.93-31.86,8.89-2.43.68-4.87,1.36-7.3,2.04-.64.18-1.1.79-1.1,1.45v193.6c0,2.62-.07,5.24,0,7.86,0,.11,0,.23,0,.34,0,1.93,3,1.93,3,0h0Z"/>
          <path d="m45.23,234.66c3.04-.85,5.83-1.89,8.28-3.96,2.89-2.44,4.94-5.95,5.62-9.67,1.35-7.37-2.26-14.99-9.01-18.37-3.37-1.68-7.14-2.2-10.84-1.52-3,.55-6.08,1.61-8.54,3.41-6.23,4.56-8.74,12.97-5.8,20.15,3.26,7.95,12.03,12.17,20.29,9.96,1.86-.5,1.07-3.39-.8-2.89-6.05,1.62-12.56-.9-15.79-6.32s-2.27-12.76,2.34-17.22c3.89-3.76,10.58-5.38,15.73-3.74,5.88,1.86,9.86,7.54,9.72,13.68-.08,3.66-1.66,7.18-4.29,9.72-2.2,2.12-4.84,3.08-7.72,3.88-1.86.52-1.07,3.41.8,2.89Z"/>
          <g>
            <path d="m52.54,178.32v-37.33c0-3.2,2.13-6.01,5.22-6.87h0c2.81-.78,5.6,1.33,5.6,4.25v36.94l-10.82,3.02Z"/>
            <path d="m54.04,178.32v-35.01c0-2.36-.12-4.66,1.8-6.45,1.67-1.55,4.79-2.19,5.82.45.24.61.19,1.26.19,1.9v36.09l1.1-1.45-10.82,3.02c-1.86.52-1.07,3.41.8,2.89l10.82-3.02c.64-.18,1.1-.79,1.1-1.45v-35.92c0-.7.02-1.4-.11-2.1-.51-2.81-3.12-4.93-5.99-4.83-4.58.16-7.7,4.56-7.73,8.85-.03,6.12,0,12.24,0,18.35v18.66c0,1.93,3,1.93,3,0Z"/>
          </g>
          <g>
            <path d="m36.16,182.98v-37.33c0-3.2,2.13-6.01,5.22-6.87h0c2.81-.78,5.6,1.33,5.6,4.25v36.94l-10.82,3.02Z"/>
            <path d="m37.66,182.98v-35.01c0-2.36-.12-4.66,1.8-6.45,1.67-1.55,4.79-2.19,5.82.45.24.61.19,1.26.19,1.9v36.09l1.1-1.45-10.82,3.02c-1.86.52-1.07,3.41.8,2.89l10.82-3.02c.64-.18,1.1-.79,1.1-1.45v-35.92c0-.7.02-1.4-.11-2.1-.51-2.81-3.12-4.93-5.99-4.83-4.58.16-7.7,4.56-7.73,8.85-.03,6.12,0,12.24,0,18.35v18.66c0,1.93,3,1.93,3,0Z"/>
          </g>
          <g>
            <path d="m19.79,187.46v-37.33c0-3.2,2.13-6.01,5.22-6.87h0c2.81-.78,5.6,1.33,5.6,4.25v36.94l-10.82,3.02Z"/>
            <path d="m21.29,187.46v-35.01c0-2.36-.12-4.66,1.8-6.45,1.67-1.55,4.79-2.19,5.82.45.24.61.19,1.26.19,1.9v36.09l1.1-1.45-10.82,3.02c-1.86.52-1.07,3.41.8,2.89l10.82-3.02c.64-.18,1.1-.79,1.1-1.45v-35.92c0-.7.02-1.4-.11-2.1-.51-2.81-3.12-4.93-5.99-4.83-4.58.16-7.7,4.56-7.73,8.85-.03,6.12,0,12.24,0,18.35v18.66c0,1.93,3,1.93,3,0Z"/>
          </g>
          <path d="m13.49,139.24v-24.02l-2.8.76c2.6,3.95,5.2,7.89,7.8,11.84.37.56,1.03.87,1.69.69,8.34-2.33,16.68-4.65,25.02-6.98l14.96-4.17c1.13-.32,2.28-.59,3.4-.95,1.22-.39,1.56-1.72,2.07-2.79,2.27-4.71,4.54-9.43,6.81-14.14l-2.8-.76v24.02l1.1-1.45c-6.67,1.86-13.33,3.72-20,5.58-10.62,2.96-21.24,5.93-31.86,8.89-2.43.68-4.87,1.36-7.3,2.04-1.86.52-1.07,3.41.8,2.89,6.67-1.86,13.33-3.72,20-5.58,10.62-2.96,21.24-5.93,31.86-8.89,2.43-.68,4.87-1.36,7.3-2.04.64-.18,1.1-.79,1.1-1.45v-24.02c0-1.41-2.13-2.14-2.8-.76-2.6,5.4-5.2,10.79-7.8,16.19l.9-.69c-4.9,1.37-9.8,2.73-14.69,4.1l-23.45,6.54c-1.81.5-3.62,1.01-5.42,1.51l1.69.69c-2.6-3.95-5.2-7.89-7.8-11.84-.8-1.21-2.8-.79-2.8.76v24.02c0,1.93,3,1.93,3,0Z"/>
          <path d="m68.74,100.27c-2.23,4.62-4.45,9.25-6.68,13.87l.9-.69c-11.16,3.12-22.33,6.23-33.49,9.35-1.56.43-3.11.87-4.67,1.3l1.9,1.45v-12.01l-1.1,1.45c5.03-1.4,10.06-2.81,15.1-4.21,8.07-2.25,16.14-4.5,24.21-6.76,1.85-.52,3.69-1.03,5.54-1.55s1.07-3.41-.8-2.89c-5.03,1.4-10.06,2.81-15.1,4.21-8.07,2.25-16.14,4.5-24.21,6.76-1.85.52-3.69,1.03-5.54,1.55-.64.18-1.1.79-1.1,1.45v12.01c0,.97.96,1.71,1.9,1.45,7.28-2.03,14.56-4.06,21.84-6.09l13.11-3.66c1-.28,2.03-.52,3.02-.84,1.12-.36,1.38-1.35,1.85-2.32,1.97-4.1,3.95-8.2,5.92-12.3.83-1.73-1.75-3.25-2.59-1.51Z"/>
          <path d="m26.49,114.29c1.52-3.39,3.04-6.78,4.57-10.18,3.66-8.15,7.31-16.29,10.97-24.44l13.32-29.69c3.81-8.49,7.62-16.98,11.43-25.48l3.8-8.47c.58-1.3,1.39-2.65,1.8-4.01.02-.06.05-.11.08-.17l-2.8-.76v87.05c0,.11-.04.32,0,.43.01.03-.01.07,0,.1-.03-.07.42-.97.1-.52-.43.61-.69,1.43-1.01,2.1l.9-.69c-5.03,1.4-10.06,2.81-15.1,4.21-8.07,2.25-16.14,4.5-24.21,6.76-1.85.52-3.69,1.03-5.54,1.55s-1.07,3.41.8,2.89c9.22-2.57,18.44-5.15,27.66-7.72l14.93-4.17c.96-.27,2.55-.43,3.15-1.32.66-.98,1.3-2.32,1.32-3.52.13-8.03,0-16.07,0-24.1v-39.08c0-7.86.16-15.75,0-23.61,0-.12,0-.25,0-.37,0-1.39-2.16-2.17-2.8-.76-1.52,3.39-3.04,6.78-4.57,10.18-3.66,8.15-7.31,16.29-10.97,24.44l-13.32,29.69c-3.81,8.49-7.62,16.98-11.43,25.48-1.87,4.16-3.76,8.31-5.6,12.48-.03.06-.05.11-.08.17-.78,1.75,1.8,3.27,2.59,1.51Z"/>
          <path d="m40.07,254.39v17.36c0,1.93,3,1.93,3,0v-17.36c0-1.93-3-1.93-3,0h0Z"/>
          <path d="m12.75,200.02c6.67-1.86,13.33-3.72,20-5.58,10.62-2.96,21.24-5.93,31.86-8.89,2.43-.68,4.87-1.36,7.3-2.04,1.86-.52,1.07-3.41-.8-2.89-6.67,1.86-13.33,3.72-20,5.58-10.62,2.96-21.24,5.93-31.86,8.89-2.43.68-4.87,1.36-7.3,2.04-1.86.52-1.07,3.41.8,2.89h0Z"/>
          <path d="m40.07,310.44v17.36c0,1.93,3,1.93,3,0v-17.36c0-1.93-3-1.93-3,0h0Z"/>
        </g>
        <g>
          <path d="m132.17,341.28c0-1.79,0-3.58,0-5.37v-14.71c0-7.22,0-14.45,0-21.67,0-8.85,0-17.7,0-26.55,0-9.66,0-19.31,0-28.97,0-9.79,0-19.58,0-29.36,0-9.09,0-18.18,0-27.26,0-7.71,0-15.42,0-23.13,0-5.52,0-11.04,0-16.56,0-2.62.06-5.24,0-7.86,0-.11,0-.23,0-.34,0-.66-.47-1.27-1.1-1.45-6.67-1.86-13.33-3.72-20-5.58-10.62-2.96-21.24-5.93-31.86-8.89-2.43-.68-4.87-1.36-7.3-2.04-.94-.26-1.9.48-1.9,1.45v219.4c0,2.98-.06,5.97,0,8.95,0,.13,0,.25,0,.38,0,1.93,3,1.93,3,0v-219.4c0-2.96.21-6,0-8.95,0-.12,0-.25,0-.38l-1.9,1.45c6.67,1.86,13.33,3.72,20,5.58,10.62,2.96,21.24,5.93,31.86,8.89,2.43.68,4.87,1.36,7.3,2.04l-1.1-1.45c0,1.79,0,3.58,0,5.37v14.71c0,7.22,0,14.45,0,21.67,0,8.85,0,17.7,0,26.55,0,9.66,0,19.31,0,28.97,0,9.79,0,19.58,0,29.36,0,9.09,0,18.18,0,27.26,0,7.71,0,15.42,0,23.13,0,5.52,0,11.04,0,16.56,0,2.62-.07,5.24,0,7.86,0,.11,0,.23,0,.34,0,1.93,3,1.93,3,0h0Z"/>
          <path d="m98.23,232.01c-2.46-.69-4.8-1.44-6.82-3.08-2.48-2.02-4.19-4.83-4.88-7.95-1.35-6.12,1.73-12.45,7.24-15.34,4.9-2.58,11.36-1.73,15.93,1.25,5.43,3.55,7.62,10.6,5.37,16.64-2.51,6.75-9.99,10.31-16.84,8.48-1.87-.5-2.66,2.39-.8,2.89,7.3,1.95,15.14-1.08,19.09-7.56s2.91-15.3-2.49-20.76c-4.65-4.7-12.75-6.78-19.05-4.71-7.05,2.32-11.94,9.08-11.77,16.52.1,4.27,1.83,8.41,4.81,11.48,2.62,2.7,5.86,4.03,9.4,5.02,1.86.52,2.66-2.37.8-2.89Z"/>
          <g>
            <path d="m90.12,178.57v-37.33c0-3.2-2.13-6.01-5.22-6.87h0c-2.81-.78-5.6,1.33-5.6,4.25v36.94s10.82,3.02,10.82,3.02Z"/>
            <path d="m91.62,178.57c0-12.05,0-24.09,0-36.14,0-3.52-1.09-6.84-4.35-8.69-2.36-1.34-5.26-1.44-7.4.4-1.4,1.19-2.04,2.89-2.06,4.69-.07,6,0,12,0,18s0,12.48,0,18.72c0,.66.47,1.27,1.1,1.45,3.61,1.01,7.21,2.01,10.82,3.02,1.86.52,2.66-2.37.8-2.89-3.61-1.01-7.21-2.01-10.82-3.02l1.1,1.45c0-11.62,0-23.24,0-34.86,0-.65-.02-1.3,0-1.94.06-1.68,1.28-3.18,3.09-3.05,2.5.18,4.49,2.63,4.7,5.01.05.51.02,1.03.02,1.54,0,6.3,0,12.6,0,18.9,0,5.81,0,11.61,0,17.42,0,1.93,3,1.93,3,0Z"/>
          </g>
          <g>
            <path d="m106.5,183.22v-37.33c0-3.2-2.13-6.01-5.22-6.87h0c-2.81-.78-5.6,1.33-5.6,4.25v36.94s10.82,3.02,10.82,3.02Z"/>
            <path d="m108,183.22c0-12.05,0-24.09,0-36.14,0-3.52-1.09-6.84-4.35-8.69-2.36-1.34-5.26-1.44-7.4.4-1.4,1.19-2.04,2.89-2.06,4.69-.07,6,0,12,0,18s0,12.48,0,18.72c0,.66.47,1.27,1.1,1.45,3.61,1.01,7.21,2.01,10.82,3.02,1.86.52,2.66-2.37.8-2.89-3.61-1.01-7.21-2.01-10.82-3.02l1.1,1.45c0-11.62,0-23.24,0-34.86,0-.65-.02-1.3,0-1.94.06-1.68,1.28-3.18,3.09-3.05,2.5.18,4.49,2.63,4.7,5.01.05.51.02,1.03.02,1.54,0,6.3,0,12.6,0,18.9,0,5.81,0,11.61,0,17.42,0,1.93,3,1.93,3,0Z"/>
          </g>
          <g>
            <path d="m122.88,187.71v-37.33c0-3.2-2.13-6.01-5.22-6.87h0c-2.81-.78-5.6,1.33-5.6,4.25v36.94s10.82,3.02,10.82,3.02Z"/>
            <path d="m124.38,187.71c0-12.05,0-24.09,0-36.14,0-3.52-1.09-6.84-4.35-8.69-2.36-1.34-5.26-1.44-7.4.4-1.4,1.19-2.04,2.89-2.06,4.69-.07,6,0,12,0,18s0,12.48,0,18.72c0,.66.47,1.27,1.1,1.45,3.61,1.01,7.21,2.01,10.82,3.02,1.86.52,2.66-2.37.8-2.89-3.61-1.01-7.21-2.01-10.82-3.02l1.1,1.45c0-11.62,0-23.24,0-34.86,0-.65-.02-1.3,0-1.94.06-1.68,1.28-3.18,3.09-3.05,2.5.18,4.49,2.63,4.7,5.01.05.51.02,1.03.02,1.54,0,6.3,0,12.6,0,18.9,0,5.81,0,11.61,0,17.42,0,1.93,3,1.93,3,0Z"/>
          </g>
          <path d="m132.17,139.48c0-7.01,0-14.02,0-21.03,0-1,0-2,0-2.99,0-1.54-2-1.97-2.8-.76-2.6,3.95-5.2,7.89-7.8,11.84l1.69-.69c-4.9-1.37-9.8-2.73-14.69-4.1l-23.45-6.54c-1.81-.5-3.62-1.01-5.42-1.51l.9.69c-2.6-5.4-5.2-10.79-7.8-16.19-.67-1.38-2.8-.66-2.8.76,0,7.01,0,14.02,0,21.03,0,1,0,2,0,2.99,0,.66.47,1.27,1.1,1.45,6.67,1.86,13.33,3.72,20,5.58,10.62,2.96,21.24,5.93,31.86,8.89,2.43.68,4.87,1.36,7.3,2.04,1.86.52,2.66-2.37.8-2.89-6.67-1.86-13.33-3.72-20-5.58-10.62-2.96-21.24-5.93-31.86-8.89-2.43-.68-4.87-1.36-7.3-2.04l1.1,1.45c0-7.01,0-14.02,0-21.03,0-1,0-2,0-2.99l-2.8.76c2.02,4.19,4.04,8.38,6.06,12.58l1.35,2.81c.32.67.5,1.18,1.28,1.49s1.6.45,2.37.66c10.43,2.91,20.86,5.82,31.3,8.73,3.3.92,6.6,1.84,9.9,2.76.67.19,1.33-.13,1.69-.69,2.6-3.95,5.2-7.89,7.8-11.84l-2.8-.76c0,7.01,0,14.02,0,21.03,0,1,0,2,0,2.99,0,1.93,3,1.93,3,0Z"/>
          <path d="m71.33,102.03c1.74,3.62,3.49,7.24,5.23,10.86.54,1.12,1.08,3.21,2.36,3.71.69.27,1.46.41,2.17.6,9.11,2.54,18.21,5.08,27.32,7.62,2.89.81,5.78,1.61,8.67,2.42.94.26,1.9-.48,1.9-1.45,0-4,0-8.01,0-12.01,0-.66-.47-1.27-1.1-1.45-5.03-1.4-10.06-2.81-15.1-4.21-8.07-2.25-16.14-4.5-24.21-6.76-1.85-.52-3.69-1.03-5.54-1.55s-2.66,2.37-.8,2.89c5.03,1.4,10.06,2.81,15.1,4.21,8.07,2.25,16.14,4.5,24.21,6.76,1.85.52,3.69,1.03,5.54,1.55l-1.1-1.45c0,4,0,8.01,0,12.01l1.9-1.45c-11.16-3.12-22.33-6.23-33.49-9.35-1.56-.43-3.11-.87-4.67-1.3l.9.69c-2.23-4.62-4.45-9.25-6.68-13.87-.84-1.74-3.43-.22-2.59,1.51Z"/>
          <path d="m118.76,113.03c-1.52-3.39-3.04-6.78-4.57-10.18l-10.97-24.44c-4.44-9.9-8.88-19.79-13.32-29.69-3.81-8.49-7.62-16.98-11.43-25.48l-3.8-8.47c-.59-1.32-1.11-2.73-1.8-4.01-.03-.05-.05-.11-.08-.17-.63-1.41-2.8-.64-2.8.76,0,6.6,0,13.21,0,19.81,0,12.91,0,25.81,0,38.72,0,9.17,0,18.35,0,27.52,0,.51-.06,1.05,0,1.55.06.58.36,1.08.61,1.59.27.55.49,1.34.95,1.78.33.33.77.41,1.19.53l12.32,3.44,31.33,8.74.65.18c1.86.52,2.66-2.37.8-2.89-5.03-1.4-10.06-2.81-15.1-4.21l-24.21-6.76c-1.85-.52-3.69-1.03-5.54-1.55l.9.69c-.32-.67-.58-1.49-1.01-2.1-.33-.46.15.42.1.52.01-.03-.01-.08,0-.1.12-.29,0-.87,0-1.18v-5.58c0-6.85,0-13.69,0-20.54,0-8.64,0-17.28,0-25.93,0-7.64,0-15.28,0-22.92v-7.54c0-1.17.16-2.47,0-3.63,0-.05,0-.11,0-.16l-2.8.76c1.52,3.39,3.04,6.78,4.57,10.18l10.97,24.44c4.44,9.9,8.88,19.79,13.32,29.69,3.81,8.49,7.62,16.98,11.43,25.48l3.8,8.47c.59,1.32,1.11,2.73,1.8,4.01.03.05.05.11.08.17.79,1.76,3.37.23,2.59-1.51Z"/>
          <path d="m99.59,254.64c0,5.07,0,10.14,0,15.21v2.15c0,1.93,3,1.93,3,0,0-5.07,0-10.14,0-15.21v-2.15c0-1.93-3-1.93-3,0h0Z"/>
          <path d="m130.71,197.37c-6.67-1.86-13.33-3.72-20-5.58-10.62-2.96-21.24-5.93-31.86-8.89-2.43-.68-4.87-1.36-7.3-2.04-1.86-.52-2.66,2.37-.8,2.89,6.67,1.86,13.33,3.72,20,5.58,10.62,2.96,21.24,5.93,31.86,8.89,2.43.68,4.87,1.36,7.3,2.04,1.86.52,2.66-2.37.8-2.89h0Z"/>
          <path d="m99.59,310.68c0,5.07,0,10.14,0,15.21v2.15c0,1.93,3,1.93,3,0,0-5.07,0-10.14,0-15.21v-2.15c0-1.93-3-1.93-3,0h0Z"/>
        </g>
      </g>
    </g>
  </g>
</svg>