<?xml version="1.0" encoding="UTF-8"?>
<svg id="Layer_2" data-name="Layer 2" xmlns="http://www.w3.org/2000/svg" viewBox="0 0 126.78 118.57">
  <defs>
    <style>
      .cls-1 {
        fill: #ffe23c;
      }

      .cls-2 {
        fill: #fff;
        opacity: .43;
      }

      .cls-3 {
        fill: #f4f4f4;
        stroke: #7a7a7a;
        stroke-miterlimit: 10;
        stroke-width: .25px;
      }
    </style>
  </defs>
  <g id="Layer_1-2" data-name="Layer 1">
    <g>
      <path class="cls-3" d="m62.39,4.32c-3.86,3.73-4.95,5.04-9.35,8.12-3.6,2.52-8.74,2.61-12.43.21-5.48-3.56-7.54-11.71-15.23-11.68-2.12,0-4.19.7-6,1.81-5.16,3.16-7.85,8.53-11.65,12.94-2.27,2.63-3.02,2.57-5.05,5.38S-.41,26.55.4,29.93c.89,3.72,6.73,9.32,9.68,11.76,7.3,6.03,10.36,10.53,13.8,17.08.95,1.81,2.84,4.5,3.42,6.45,1.08,3.68.69,6.7-1.35,9.76-1.88,2.81-4.64,4.14-6.35,7.05-1.31,2.23-2.38,8.41-.51,10.78,2.53,3.22,3.97,6.22,6.56,9.29,1.82,2.15,3.38,4.5,4.58,7.05,1.78,3.8,4.88,8.37,9.38,9.17,7.96,1.41,13.92-9.25,21.98-8.68,6.99.49,11.7,9.35,19.49,6.48,1.58-.58,2.97-1.59,4.11-2.83,3.28-3.59,4.29-8.3,5.4-12.86,1.34-5.51,2.89-10.97,4.65-16.36.51-1.58,1.05-3.17,1.98-4.54.89-1.31,2.1-2.37,3.33-3.37,4.8-3.9,10.13-7.14,15.81-9.6,4.02-1.74,7.03-2.58,8.89-7.04,3.06-7.3,1.19-12.05-5.77-14.61s-13.42-3.23-18.34-6.28-6.05-4.12-9.11-9.29c-5.15-8.71-3.03-15.23-7.64-23.55s-16.76-6.52-21.98-1.47Z"/>
      <path class="cls-1" d="m75.56,8.3s-3.78,34.46-6.08,37.54-3.71,3.98-3.71,3.98c0,0-3.64,5.31-30.83,4.4,0,0,20.21.7,27.79,7.2s8.14,10.56,9.19,16.57,4.05,27.96,4.05,27.96c0,0,3.64-33.35,6.85-36.98s7.76-12.37,32.93-13.84c0,0-25.8-1.82-28.8-4.54s-7.69.88-11.4-42.29Z"/>
      <path class="cls-1" d="m26.03,8.53s-1.65,15.11-2.67,16.45-1.62,1.75-1.62,1.75c0,0-1.59,2.33-13.51,1.93,0,0,8.86.31,12.18,3.16s3.57,4.63,4.03,7.26,1.78,12.26,1.78,12.26c0,0,1.59-14.62,3-16.21s3.4-5.42,14.43-6.07c0,0-11.31-.8-12.62-1.99s-3.37.39-4.99-18.54Z"/>
      <path class="cls-1" d="m42.46,66.99s-1.65,15.11-2.67,16.45-1.62,1.75-1.62,1.75c0,0-1.59,2.33-13.51,1.93,0,0,8.86.31,12.18,3.16s3.57,4.63,4.03,7.26,1.78,12.26,1.78,12.26c0,0,1.59-14.62,3-16.21s3.4-5.42,14.43-6.07c0,0-11.31-.8-12.62-1.99s-3.37.39-4.99-18.54Z"/>
      <path class="cls-2" d="m86.87,12.1c-.54-2.03-1.28-4.11-2.5-6.31-1.38-2.49-3.5-4.06-5.92-4.9-13.42,12.13-30.69,31.39-52.24,61.9.47.86.87,1.69,1.08,2.43.21.74.35,1.44.45,2.13,14.85-14.96,38.06-37.65,59.12-55.25Z"/>
    </g>
  </g>
</svg>